<svg width="72" height="71" viewBox="0 0 72 71" fill="none" xmlns="http://www.w3.org/2000/svg">
<path fill-rule="evenodd" clip-rule="evenodd" d="M56.9086 45.7913C61.3195 40.9311 64 34.523 64 27.5C64 12.3122 51.464 0 36 0C20.536 0 8 12.3122 8 27.5C8 34.523 10.6805 40.9311 15.0914 45.7913C13.1233 42.3088 12 38.2856 12 34C12 20.7452 22.7452 10 36 10C49.2548 10 60 20.7452 60 34C60 38.2856 58.8767 42.3088 56.9086 45.7913Z" fill="#EE5D0B"/>
<path fill-rule="evenodd" clip-rule="evenodd" d="M9.11755 12C3.44631 18.2488 0 26.4878 0 35.5174C0 55.0446 16.1177 70.8745 36 70.8745C55.8823 70.8745 72 55.0446 72 35.5174C72 26.4878 68.5537 18.2488 62.8824 12C65.4129 16.4775 66.8571 21.6502 66.8571 27.1602C66.8571 44.2021 53.0419 58.0174 36 58.0174C18.9581 58.0174 5.14285 44.2021 5.14285 27.1602C5.14285 21.6502 6.58704 16.4775 9.11755 12Z" fill="#EE5D0B"/>
<path d="M41.2188 38.4531H45.8906C45.7969 39.9844 45.375 41.3438 44.625 42.5312C43.8854 43.7188 42.849 44.6458 41.5156 45.3125C40.1927 45.9792 38.599 46.3125 36.7344 46.3125C35.276 46.3125 33.9688 46.0625 32.8125 45.5625C31.6562 45.0521 30.6667 44.3229 29.8438 43.375C29.0312 42.4271 28.4115 41.2812 27.9844 39.9375C27.5573 38.5938 27.3438 37.0885 27.3438 35.4219V33.8438C27.3438 32.1771 27.5625 30.6719 28 29.3281C28.4479 27.974 29.0833 26.8229 29.9062 25.875C30.7396 24.9271 31.7344 24.1979 32.8906 23.6875C34.0469 23.1771 35.3385 22.9219 36.7656 22.9219C38.6615 22.9219 40.2604 23.2656 41.5625 23.9531C42.875 24.6406 43.8906 25.5885 44.6094 26.7969C45.3385 28.0052 45.776 29.3802 45.9219 30.9219H41.2344C41.1823 30.0052 41 29.2292 40.6875 28.5938C40.375 27.9479 39.901 27.4635 39.2656 27.1406C38.6406 26.8073 37.8073 26.6406 36.7656 26.6406C35.9844 26.6406 35.3021 26.7865 34.7188 27.0781C34.1354 27.3698 33.6458 27.8125 33.25 28.4062C32.8542 29 32.5573 29.75 32.3594 30.6562C32.1719 31.5521 32.0781 32.6042 32.0781 33.8125V35.4219C32.0781 36.599 32.1667 37.6354 32.3438 38.5312C32.5208 39.4167 32.7917 40.1667 33.1562 40.7812C33.5312 41.3854 34.0104 41.8438 34.5938 42.1562C35.1875 42.4583 35.901 42.6094 36.7344 42.6094C37.7135 42.6094 38.5208 42.4531 39.1562 42.1406C39.7917 41.8281 40.276 41.3646 40.6094 40.75C40.9531 40.1354 41.1562 39.3698 41.2188 38.4531Z" fill="#EE5D0B"/>
</svg>
